<svg width="467" height="673" viewBox="0 0 467 673" fill="none" xmlns="http://www.w3.org/2000/svg">
<g clip-path="url(#clip0_58_335)">
<path fill-rule="evenodd" clip-rule="evenodd" d="M215.531 385C212.086 386.477 207.249 387.031 203.812 381.4C201.226 377.126 201.652 373.747 205.121 371.083C209.153 367.972 215.864 346.012 214.094 327.887C212.853 315.14 208.575 305.759 204.458 296.656C202.694 292.802 200.886 288.809 199.318 284.606C194.739 272.214 195.039 260.243 200.194 250.884C204.637 242.853 212.179 237.58 222.024 235.647C222.024 235.647 222.047 235.629 222.056 235.63C222.132 235.68 222.219 235.712 222.31 235.724C242.235 240.711 254.72 254.551 261.63 279.258C265.234 292.131 263.583 305.331 261.984 318.113C261.515 321.848 261.028 325.726 260.683 329.536C258.337 355.256 243.973 372.89 215.531 385ZM264.106 278.55C256.922 252.848 243.848 238.43 222.945 233.197C222.752 233.152 222.551 233.149 222.357 233.187C222.106 233.063 221.82 233.028 221.546 233.088C211.087 235.13 202.707 241.025 197.96 249.617C192.427 259.663 192.051 272.41 196.918 285.52C198.516 289.809 200.338 293.847 202.124 297.764C206.342 307.055 210.327 315.841 211.529 328.161C213.253 345.764 206.607 366.668 203.565 369.002C199.05 372.498 198.348 377.381 201.642 382.767C203.694 386.17 206.518 388.108 209.812 388.513C211.907 388.77 214.158 388.405 216.516 387.403C245.946 374.866 260.789 356.571 263.236 329.768C263.588 325.998 264.071 322.141 264.527 318.425C266.171 305.38 267.842 291.926 264.106 278.55ZM175.696 530.157C162.913 537.181 153.826 534.359 147.131 521.225C144.831 516.691 144.339 511.452 145.755 506.569C147.03 502.285 149.672 498.829 153.182 496.912C155.087 495.864 157.386 495.527 159.817 495.153C160.947 494.982 162.106 494.815 163.235 494.558C163.244 494.559 163.257 494.54 163.257 494.54C163.387 494.61 163.534 494.648 163.671 494.665C170.506 495.505 175.15 497.773 177.904 501.528C180.653 505.324 181.536 510.728 180.616 518.067C180.503 518.981 180.446 519.935 180.388 520.825C180.166 524.577 179.979 527.799 175.696 530.158M183.124 518.375C184.145 510.301 183.091 504.246 179.905 499.872C176.738 495.481 171.532 492.93 163.997 492.005C163.854 491.981 163.706 491.988 163.566 492.026C163.32 491.893 163.035 491.851 162.762 491.907C161.711 492.162 160.583 492.333 159.496 492.488C156.963 492.87 154.35 493.255 152.048 494.519C147.926 496.778 144.827 500.796 143.355 505.794C141.724 511.378 142.277 517.373 144.9 522.564C149.239 531.062 154.64 535.686 161.211 536.492C165.833 537.06 171.019 535.733 176.831 532.548C182.409 529.476 182.675 524.95 182.905 520.974C182.966 520.064 183.01 519.214 183.124 518.375Z" fill="#C1D112"/>
<path fill-rule="evenodd" clip-rule="evenodd" d="M301.68 332.144C299.2 340.577 296.19 346.901 292.465 351.453C284.408 361.309 276.891 371.789 269.61 381.925C263.408 390.542 256.991 399.483 250.304 407.957C240.581 420.284 231.72 429.7 213.639 429.97C199.034 430.15 187.577 428.318 176.451 424.029C169.976 421.519 166.187 417.986 164.833 413.246C158.414 390.488 160.372 374.368 171.178 360.988C188.458 339.602 182.725 317.012 175.788 299.738C175.073 297.959 174.337 296.188 173.58 294.427C170.281 286.574 167.15 279.197 166.691 270.826C166.235 262.859 167.458 254.819 168.615 247.059C169.147 243.571 169.69 239.972 170.088 236.405C171.874 220.018 186.486 204.428 201.991 202.335C203.192 202.162 204.434 202.149 205.759 202.116C207.699 202.085 209.711 202.054 211.71 201.555C211.836 201.613 211.973 201.67 212.104 201.686C214.907 202.061 217.758 202.38 220.496 202.697C230.126 203.734 240.074 204.832 249 209.584C249.991 210.109 251.001 210.656 251.999 211.201C257.429 214.131 263.042 217.153 268.976 218.998C287.567 224.751 296.258 239.348 300.29 250.574C309.528 276.405 310.004 303.833 301.68 332.144ZM269.742 216.51C264.047 214.737 258.541 211.756 253.225 208.895C252.217 208.346 251.217 207.801 250.217 207.265C240.848 202.283 230.654 201.176 220.775 200.087C218.054 199.793 215.233 199.489 212.471 199.108C212.32 199.068 212.16 199.07 212.01 199.114C211.735 198.975 211.419 198.94 211.12 199.015C209.385 199.452 207.6 199.471 205.718 199.528C204.374 199.539 202.998 199.556 201.642 199.751C185.062 201.992 169.418 218.652 167.508 236.13C167.129 239.636 166.586 243.217 166.059 246.684C164.874 254.584 163.635 262.746 164.099 270.994C164.596 279.793 167.955 287.744 171.2 295.445C171.944 297.194 172.671 298.95 173.382 300.713C180.469 318.367 185.502 339.145 169.175 359.348C154.566 377.425 157.848 398.02 162.347 413.963C163.924 419.567 168.229 423.64 175.508 426.454C182.297 429.086 189.167 430.817 196.768 431.75C202.008 432.394 207.572 432.654 213.669 432.576C232.874 432.311 242.171 422.452 252.329 409.581C259.052 401.069 265.491 392.11 271.698 383.452C278.964 373.354 286.469 362.894 294.475 353.104C298.407 348.288 301.58 341.654 304.164 332.872C312.637 304.012 312.157 276.035 302.716 249.684C296.664 232.778 285.264 221.297 269.742 216.51Z" fill="#C1D112"/>
<path fill-rule="evenodd" clip-rule="evenodd" d="M346.814 336.395C344.667 339.705 342.527 343.026 340.39 346.337C334.44 355.552 328.296 365.084 322.146 374.232C320.714 376.359 319.305 378.479 317.859 380.626C303.692 401.823 289.03 423.745 269.929 441.661C256.223 454.53 242.211 461.041 225.839 462.129C213.456 462.953 200.225 462.433 184.167 460.462L184.043 460.447C174.798 459.29 166.963 456.17 159.402 450.646C157.33 449.121 154.984 447.543 152.507 445.865C143.374 439.723 132.015 432.05 125.401 421.355C116.782 407.409 116.991 375.914 130.196 354.62C131.054 353.207 131.971 351.811 132.873 350.382C138.265 342.071 143.83 333.459 143.47 322.302C143.3 317.014 142.619 311.768 141.958 306.687C141.453 302.774 140.926 298.712 140.639 294.722C140.143 287.699 138.236 280.949 136.374 274.431C134.521 267.914 132.601 261.182 132.162 254.292C131.714 247.131 132.18 239.887 132.625 232.878C132.906 228.481 133.208 223.913 133.277 219.387C133.428 208.615 138.032 198.894 146.955 190.528C172.329 166.772 197.529 155.15 226.241 153.915C237.921 153.406 248.069 153.724 257.257 154.852C267.158 156.068 276.107 158.22 284.665 161.45C327.581 177.624 351.874 204.961 358.929 244.977C360.69 255.036 360.907 265.493 361.119 275.599C361.196 279.522 361.276 283.591 361.443 287.566C361.092 289.816 355.956 322.285 346.814 336.395ZM363.734 275.559C363.526 265.35 363.313 254.769 361.514 244.531C354.279 203.519 329.444 175.539 285.587 159.002C276.842 155.707 267.683 153.488 257.576 152.247C248.235 151.1 237.942 150.787 226.125 151.318C196.748 152.565 171.023 164.413 145.167 188.638C135.695 197.501 130.81 207.828 130.65 219.344C130.587 223.819 130.293 228.337 130.013 232.722C129.557 239.803 129.084 247.128 129.542 254.445C130.007 261.629 131.962 268.499 133.86 275.155C135.687 281.544 137.56 288.147 138.024 294.906C138.324 298.971 138.85 303.053 139.358 307.009C140.015 312.037 140.682 317.241 140.848 322.384C141.175 332.731 135.839 340.988 130.683 348.967C129.758 350.414 128.83 351.827 127.95 353.25C114.274 375.332 114.143 408.137 123.161 422.721C130.066 433.918 141.697 441.738 151.025 448.048C153.497 449.704 155.813 451.259 157.858 452.759C165.787 458.567 174.017 461.839 183.726 463.031L183.859 463.047C200.061 465.036 213.467 465.576 226.026 464.734C243.027 463.599 257.552 456.873 271.725 443.566C291.053 425.418 305.798 403.394 320.055 382.063C321.466 379.942 322.908 377.817 324.32 375.687C330.482 366.519 336.639 356.968 342.591 347.754C344.739 344.434 346.866 341.121 349.013 337.811C358.741 322.813 363.839 289.223 364.053 287.824C364.063 287.743 364.073 287.662 364.064 287.558C363.886 283.611 363.821 279.503 363.734 275.559Z" fill="#C1D112"/>
<path fill-rule="evenodd" clip-rule="evenodd" d="M324.163 122.27C326.819 116.906 331.427 114.508 337.53 115.257C338.175 115.336 338.857 115.46 339.547 115.624C342.8 116.33 346.173 116.665 349.431 116.987C350.893 117.126 352.346 117.264 353.805 117.444C354.116 117.483 354.431 117.421 354.703 117.267C358.841 124.298 359.444 131.091 356.402 136.408C353.425 141.623 347.069 145.007 339.399 145.412L338.982 145.44C332.486 145.823 328.559 146.043 324.916 140.582C321.111 134.891 320.877 128.894 324.163 122.27ZM332.153 147.952C334.361 148.223 336.7 148.104 339.194 147.944L339.608 147.935C348.188 147.443 355.352 143.585 358.77 137.63C362.286 131.461 361.618 123.736 356.892 115.811C356.532 115.211 355.703 114.991 355.071 115.318C355.028 115.334 354.99 115.368 354.958 115.385C354.731 115.154 354.432 115.008 354.11 114.973C352.63 114.791 351.147 114.639 349.665 114.497C346.499 114.188 343.212 113.844 340.112 113.175C331.756 111.317 325.224 114.152 321.751 121.18C318.045 128.625 318.356 135.395 322.674 141.892C325.432 146.046 328.611 147.518 332.153 147.952Z" fill="#C1D112"/>
<path fill-rule="evenodd" clip-rule="evenodd" d="M235.743 522.411C231.465 525.488 228.024 529.225 225.221 533.849C209.159 560.397 170.354 573.825 150.716 571.414C150.147 571.344 149.568 571.254 149.029 571.166C129.618 567.592 121.039 561.851 115.037 548.355C108.994 534.78 105.165 521.115 103.643 507.722C101.126 485.401 96.2271 467.641 88.2427 451.831C82.0498 439.562 78.8797 425.089 79.1016 409.956C79.5121 381.837 86.3766 359.395 100.056 341.298C103.498 336.773 105.694 331.28 106.949 324.014C110.363 304.47 105.684 286.188 100.661 270.877C96.6605 258.7 93.1983 247.69 91.4328 236.368C86.5473 205.188 91.2514 183.049 106.636 164.562C113.081 156.826 120.977 150.674 128.6 144.72C130.852 142.996 133.079 141.24 135.282 139.454C148.782 128.548 164.938 121.714 184.667 118.58C188.94 117.915 193.331 117.378 197.565 116.872C207.956 115.603 218.706 114.294 228.895 110.713C243.701 105.513 257.299 97.5171 270.458 89.8197C277.741 85.5396 285.291 81.1158 292.922 77.2191C299.921 73.6499 307.472 70.147 316.179 69.7064C329.342 69.0359 342.575 70.1735 355.368 71.257C356.19 71.3341 357.011 71.4215 357.831 71.5191C364.926 72.3903 370.062 74.3136 373.994 77.6123C390.683 91.4795 398.46 109.986 396.48 131.082C395.997 136.28 395.41 141.568 394.845 146.673C392.677 166.277 390.44 186.514 393.209 206.444C397 233.806 398.536 256.027 398.006 276.36C397.525 294.515 393.396 312.056 389.432 326.802C388.852 328.998 388.396 331.29 387.981 333.484C387.092 338.024 386.245 342.308 384.261 345.996C380.31 353.313 376.605 360.889 373.025 368.211C369.091 376.235 365.03 384.533 360.636 392.501C346.409 418.345 329.321 440.845 309.867 459.369C290.41 477.907 264.395 501.816 235.743 522.411ZM362.933 393.756C367.354 385.74 371.431 377.412 375.37 369.348C378.947 362.047 382.635 354.511 386.562 347.231C388.745 343.195 389.65 338.512 390.547 333.997C390.958 331.823 391.398 329.59 391.955 327.505C395.961 312.568 400.147 294.837 400.629 276.413C401.153 255.965 399.614 233.599 395.801 206.069C393.071 186.495 395.291 166.391 397.438 146.971C398.007 141.824 398.595 136.537 399.091 131.32C401.149 109.322 393.041 90.0503 375.681 75.594C371.332 71.9871 365.764 69.8745 358.147 68.9392C357.291 68.8342 356.445 68.7303 355.595 68.6558C342.699 67.5597 329.385 66.4121 316.056 67.0832C306.847 67.5668 298.989 71.2069 291.737 74.89C284.022 78.8077 276.458 83.2597 269.121 87.5541C256.082 95.2154 242.596 103.133 228.029 108.236C218.099 111.725 207.509 113.012 197.243 114.266C192.98 114.767 188.567 115.303 184.259 116.005C164.067 119.206 147.505 126.207 133.635 137.44C131.429 139.194 129.214 140.937 126.991 142.668C119.252 148.704 111.251 154.945 104.614 162.895C88.711 181.993 83.8548 204.774 88.8381 236.764C90.6327 248.275 94.1208 259.403 98.1695 271.698C103.096 286.699 107.689 304.586 104.376 323.563C103.183 330.411 101.146 335.533 97.9715 339.728C83.9389 358.258 76.8962 381.226 76.4879 409.924C76.2579 425.45 79.5283 440.372 85.9039 453.015C93.7575 468.54 98.5563 486.018 101.051 508.015C102.59 521.688 106.5 535.613 112.64 549.416C118.983 563.679 128.388 570.028 148.559 573.736C149.144 573.85 149.764 573.947 150.396 574.025C160.898 575.314 176.083 572.263 190.015 566.098C206.522 558.781 219.843 547.811 227.467 535.199C230.087 530.897 233.278 527.408 237.273 524.535C266.049 503.862 292.147 479.858 311.663 461.268C331.329 442.54 348.575 419.841 362.933 393.756Z" fill="#C1D112"/>
<path fill-rule="evenodd" clip-rule="evenodd" d="M186.409 632.475C173.721 638.828 160.716 641.414 148.809 639.952C136.209 638.405 125.209 632.51 116.123 622.405C107.29 612.592 99.8804 602.155 94.4144 594.164C79.77 572.784 71.6733 547.362 68.9194 514.179L68.8858 513.772C66.9538 490.493 65.1322 468.493 53.7218 447.655C40.0463 422.596 37.7061 400.013 46.3908 376.57C51.7822 361.989 55.9212 346.654 59.9214 331.841C61.3827 326.438 62.8854 320.857 64.4222 315.422C67.4503 304.755 69.87 293.298 67.171 281.742C62.5002 261.713 58.8489 245.111 55.6646 229.488C51.984 211.422 54.004 193.704 62.0175 173.782C69.1626 156.051 80.9886 140.293 100.405 122.651C133.275 92.7737 173.55 78.6862 208.585 68.8339C217.073 66.4577 224.721 64.6841 231.45 63.1399C246.059 59.7772 257.584 57.1118 269.716 50.3272C286.608 40.8552 311.96 36.8029 313.28 36.5928C315.219 36.478 317.152 36.3328 319.062 36.1832C327.232 35.5512 334.963 34.9565 342.985 35.9415C345.634 36.2668 348.124 36.7384 350.589 37.3833C352.705 37.9421 354.972 38.3564 357.52 38.6692C361.74 39.1874 366.131 39.3335 370.356 39.4682C374.459 39.5893 378.676 39.7245 382.621 40.2088C385.485 40.5605 387.97 41.0613 390.192 41.7483C425.434 52.6517 439.56 72.4338 437.424 107.949C436.815 118.229 436.356 128.693 435.912 138.806C435.644 145.029 435.352 151.464 435.033 157.773C434.044 177.874 433.131 199.301 434.017 221.073C434.239 226.765 434.096 232.566 433.974 238.195C433.862 243.245 433.752 248.43 433.88 253.539C434.364 271.088 434.017 286.557 432.827 300.794C431.752 313.761 430.037 324.371 427.441 334.21C422.467 353.057 416.158 371.491 408.162 390.597C397.749 415.486 381.031 436.608 364.875 457.032C361.709 461.019 358.565 465.024 355.443 469.046C337.392 492.334 314.386 511.068 292.139 529.182C285.91 534.246 279.481 539.483 273.238 544.743C252.733 562.066 236.56 579.517 223.774 598.108C212.539 614.425 200.664 625.351 186.411 632.475M274.926 546.753C281.148 541.511 287.575 536.274 293.794 531.207C316.155 513.004 339.279 494.16 357.513 470.636C360.629 466.62 363.769 462.621 366.933 458.642C383.197 438.097 400.015 416.841 410.585 391.6C418.623 372.405 424.968 353.851 429.966 334.883C432.6 324.894 434.338 314.12 435.439 301.012C436.63 286.681 436.987 271.13 436.497 253.457C436.361 248.418 436.477 243.255 436.594 238.258C436.722 232.588 436.859 226.744 436.627 220.969C435.757 199.324 436.664 177.937 437.656 157.887C437.976 151.58 438.258 145.143 438.525 138.932C438.969 128.827 439.415 118.371 440.042 108.115C441.167 89.2709 437.74 74.696 429.53 63.52C421.641 52.7764 409.031 44.828 390.965 39.2544C388.584 38.5077 385.958 37.9775 382.94 37.607C378.873 37.1076 374.595 36.9755 370.451 36.8507C366.276 36.7207 361.946 36.5836 357.838 36.0792C355.402 35.7801 353.248 35.3693 351.242 34.8539C348.666 34.1759 346.067 33.6803 343.304 33.3411C335.017 32.3236 326.796 32.9597 318.856 33.5691C316.944 33.7185 315.002 33.8627 313.062 33.9877L312.945 34.0033C311.85 34.1588 286.126 38.1237 268.434 48.0475C256.635 54.6443 245.249 57.2743 230.863 60.5822C224.102 62.1434 216.426 63.9031 207.882 66.3127C172.538 76.2317 131.92 90.485 98.6359 120.715C78.9184 138.621 66.8783 154.673 59.5921 172.811C51.3707 193.247 49.3161 211.416 53.1054 230.021C56.2868 245.656 59.9563 262.292 64.6245 282.343C67.1776 293.31 64.8273 304.372 61.9026 314.708C60.368 320.179 58.8668 325.66 57.3991 331.149C53.4128 345.921 49.2811 361.196 43.9346 375.668C34.9696 399.885 37.3481 423.154 51.4281 448.886C62.5749 469.267 64.3683 490.984 66.2729 513.987L66.3154 514.396C69.1055 548.051 77.3602 573.865 92.2565 595.638C97.778 603.689 105.238 614.214 114.19 624.156C123.692 634.746 135.229 640.916 148.491 642.544C160.918 644.07 174.418 641.399 187.58 634.825C202.255 627.482 214.443 616.285 225.931 599.583C238.587 581.205 254.607 563.911 274.926 546.753Z" fill="#C1D112"/>
</g>
<defs>
<clipPath id="clip0_58_335">
<rect width="393" height="629" fill="white" transform="translate(76.6558) rotate(7)"/>
</clipPath>
</defs>
</svg>
