<svg width="265" height="424" viewBox="0 0 265 424" fill="none" xmlns="http://www.w3.org/2000/svg">
<path fill-rule="evenodd" clip-rule="evenodd" d="M124.584 246.18C122.4 247.451 119.208 248.219 116.445 244.734C114.363 242.087 114.37 239.791 116.473 237.724C118.916 235.311 121.603 220.067 118.929 208.086C117.051 199.659 113.417 193.734 109.913 187.982C108.416 185.548 106.878 183.025 105.483 180.342C101.4 172.427 100.617 164.393 103.298 157.708C105.612 151.97 110.226 147.822 116.656 145.72C116.656 145.72 116.67 145.706 116.676 145.706C116.731 145.733 116.792 145.747 116.854 145.748C130.599 147.448 140.092 155.682 146.747 171.645C150.217 179.962 150.197 188.929 150.177 197.612C150.17 200.15 150.163 202.784 150.245 205.362C150.789 222.763 142.624 235.741 124.584 246.18ZM148.346 170.968C141.426 154.362 131.491 145.789 117.071 144.005C116.938 143.991 116.804 144.006 116.677 144.047C116.498 143.985 116.304 143.985 116.126 144.047C109.294 146.273 104.17 150.905 101.699 157.044C98.8206 164.22 99.6167 172.779 103.952 181.151C105.374 183.889 106.925 186.441 108.442 188.915C112.029 194.785 115.418 200.336 117.235 208.48C119.835 220.116 117.105 234.648 115.261 236.459C112.526 239.169 112.458 242.494 115.105 245.827C116.758 247.935 118.807 249 121.045 249C122.468 249 123.945 248.571 125.441 247.707C144.107 236.901 152.538 223.441 151.973 205.307C151.899 202.756 151.905 200.136 151.905 197.612C151.933 188.749 151.946 179.61 148.346 170.968ZM109.852 346.571C101.874 352.321 95.5597 351.179 89.9997 342.942C88.0879 340.097 87.3283 336.633 87.8747 333.249C88.3757 330.278 89.8597 327.749 92.0517 326.178C93.2407 325.32 94.7517 324.906 96.3477 324.456C97.0897 324.249 97.8516 324.042 98.5866 323.777C98.5926 323.777 98.5996 323.763 98.5996 323.763C98.6926 323.799 98.7937 323.813 98.8867 323.813C103.531 323.813 106.825 324.949 108.977 327.235C111.129 329.549 112.164 333.092 112.151 338.078C112.151 338.699 112.191 339.342 112.225 339.942C112.385 342.471 112.525 344.642 109.852 346.572M113.855 338.078C113.875 332.592 112.672 328.628 110.18 325.963C107.7 323.285 104.006 322.006 98.8867 322.006C98.7885 322.002 98.6906 322.019 98.5996 322.056C98.4243 321.987 98.2303 321.982 98.0517 322.042C97.3697 322.299 96.6287 322.506 95.9137 322.699C94.2497 323.163 92.5327 323.635 91.0957 324.67C88.5227 326.52 86.7787 329.463 86.2047 332.928C85.5721 336.798 86.4343 340.763 88.6167 344.021C92.2187 349.35 96.2136 352 100.678 352C103.818 352 107.18 350.686 110.808 348.078C114.289 345.564 114.095 342.514 113.922 339.835C113.888 339.221 113.848 338.649 113.855 338.078Z" fill="#1D1D1D"/>
<path fill-rule="evenodd" clip-rule="evenodd" d="M177.898 203.739C176.931 209.585 175.436 214.063 173.317 217.415C168.735 224.671 164.565 232.3 160.525 239.68C157.082 245.955 153.522 252.464 149.743 258.683C144.249 267.729 139.092 274.757 127.013 276.423C117.253 277.743 109.435 277.459 101.636 275.503C97.0957 274.356 94.2697 272.303 92.9737 269.243C86.8077 254.544 86.7938 243.598 92.9258 233.758C102.734 218.03 97.0408 203.387 90.9778 192.399C90.3531 191.268 89.7151 190.143 89.0638 189.027C86.2108 184.044 83.5087 179.366 82.5137 173.803C81.5537 168.51 81.7117 163.03 81.8487 157.743C81.9177 155.366 81.9857 152.913 81.9587 150.494C81.8077 139.383 90.3057 127.752 100.511 125.078C101.301 124.864 102.131 124.753 103.015 124.622C104.311 124.442 105.655 124.256 106.952 123.758C107.041 123.786 107.137 123.813 107.226 123.813C109.133 123.834 111.067 123.813 112.926 123.8C119.456 123.703 126.204 123.62 132.569 126.066C133.275 126.336 133.996 126.619 134.709 126.902C138.584 128.416 142.589 129.977 146.712 130.724C159.627 133.046 166.643 142.098 170.264 149.278C178.57 165.801 181.142 184.113 177.898 203.739ZM147.02 128.996C143.063 128.278 139.133 126.736 135.34 125.258C134.62 124.974 133.906 124.691 133.193 124.415C126.513 121.851 119.599 121.948 112.898 122.031C111.053 122.058 109.14 122.086 107.26 122.058C107.155 122.044 107.049 122.058 106.952 122.1C106.756 122.03 106.542 122.032 106.348 122.107C105.223 122.542 104.03 122.701 102.775 122.894C101.876 123.012 100.957 123.136 100.065 123.378C89.1527 126.239 80.0518 138.671 80.2098 150.522C80.2438 152.899 80.1747 155.339 80.1067 157.702C79.9627 163.085 79.8048 168.648 80.7928 174.128C81.8488 179.974 84.7497 185.018 87.5547 189.904C88.1965 191.013 88.8275 192.128 89.4477 193.249C95.6417 204.479 100.718 217.967 91.4507 232.825C83.1587 246.12 87.0478 259.63 91.3688 269.927C92.8848 273.547 96.1007 275.918 101.204 277.203C105.964 278.406 110.704 279 115.868 279C119.428 279 123.173 278.717 127.247 278.164C140.079 276.409 145.491 269.049 151.232 259.603C155.032 253.356 158.605 246.833 162.048 240.53C166.081 233.177 170.244 225.562 174.798 218.354C177.034 214.809 178.612 210.11 179.62 204.022C182.919 184.017 180.299 165.338 171.815 148.483C166.375 137.669 157.802 130.924 147.02 128.996Z" fill="#1D1D1D"/>
<path fill-rule="evenodd" clip-rule="evenodd" d="M208.454 202.875C207.289 205.266 206.13 207.664 204.972 210.055C201.747 216.709 198.418 223.591 195.054 230.217C194.27 231.758 193.501 233.292 192.71 234.847C184.97 250.193 176.959 266.065 165.647 279.621C157.532 289.357 148.689 294.864 137.821 296.937C129.601 298.506 120.703 299.245 109.794 299.245H109.71C103.427 299.231 97.9268 297.787 92.4128 294.712C90.9008 293.862 89.2008 292.999 87.4048 292.08C80.7878 288.721 72.5547 284.52 67.2497 277.908C60.3347 269.285 57.8867 248.196 64.9747 232.864C65.4327 231.848 65.9318 230.839 66.4178 229.809C69.3438 223.805 72.3607 217.586 71.2027 210.151C70.6547 206.627 69.7678 203.173 68.9078 199.828C68.2478 197.251 67.5617 194.577 67.0417 191.931C66.1327 187.273 64.3018 182.913 62.5198 178.705C60.7438 174.497 58.9058 170.151 58.0458 165.577C57.1578 160.823 56.8737 155.938 56.5957 151.212C56.4227 148.247 56.2498 145.166 55.9238 142.132C55.1398 134.912 57.4217 128.03 62.7067 121.7C77.7367 103.721 93.6468 93.875 112.762 90.69C120.537 89.39 127.355 88.769 133.597 88.769C140.324 88.769 146.49 89.474 152.483 90.932C182.535 98.228 201.04 114.522 209.05 140.716C211.055 147.301 212.06 154.28 213.032 161.024C213.406 163.642 213.794 166.358 214.232 169.004C214.182 170.538 213.413 192.684 208.454 202.875ZM214.779 160.782C213.801 153.969 212.789 146.907 210.743 140.205C202.531 113.36 183.61 96.68 152.899 89.218C146.775 87.732 140.463 87 133.597 87C127.251 87 120.336 87.636 112.471 88.962C92.9118 92.21 76.6687 102.25 61.3547 120.582C55.7437 127.29 53.3227 134.601 54.1617 142.319C54.4877 145.318 54.6618 148.365 54.8348 151.322C55.1118 156.097 55.3967 161.037 56.3047 165.895C57.2067 170.663 59.0797 175.099 60.8967 179.396C62.6447 183.521 64.4407 187.785 65.3067 192.269C65.8417 194.964 66.5287 197.652 67.1937 200.257C68.0467 203.567 68.9208 206.994 69.4548 210.421C70.5238 217.317 67.6307 223.28 64.8357 229.042C64.3357 230.086 63.8308 231.108 63.3588 232.132C56.0208 248.03 58.6287 269.989 65.8627 279.006C71.4037 285.93 79.8308 290.207 86.5928 293.662C88.3828 294.567 90.0607 295.417 91.5527 296.253C97.3367 299.487 103.114 301 109.71 301H109.8C120.807 301 129.824 300.26 138.16 298.665C149.445 296.509 158.614 290.815 167.006 280.748C178.45 267.018 186.509 251.071 194.298 235.628C195.068 234.093 195.858 232.553 196.628 231.012C199.999 224.372 203.335 217.476 206.561 210.822C207.726 208.424 208.877 206.033 210.042 203.642C215.32 192.808 215.972 169.916 216 168.962C216 168.907 216 168.852 215.986 168.783C215.542 166.157 215.161 163.414 214.779 160.782Z" fill="#1D1D1D"/>
<path fill-rule="evenodd" clip-rule="evenodd" d="M175.698 61.4731C177.035 57.6661 179.922 55.683 184.068 55.683C184.506 55.683 184.973 55.71 185.448 55.763C187.683 55.968 189.968 55.915 192.175 55.863C193.165 55.836 194.149 55.809 195.14 55.809C195.351 55.81 195.557 55.7426 195.727 55.617C199.074 59.981 200.036 64.477 198.437 68.284C196.873 72.018 192.897 74.804 187.797 75.705L187.52 75.758C183.204 76.548 180.594 77.0181 177.707 73.6631C174.693 70.1681 174.043 66.1751 175.698 61.4731ZM183.156 78C184.656 78 186.212 77.728 187.868 77.416L188.144 77.376C193.846 76.342 198.324 73.172 200.122 68.907C201.968 64.491 200.886 59.377 197.072 54.463C196.782 54.091 196.209 54.012 195.813 54.283C195.785 54.297 195.763 54.323 195.743 54.337C195.572 54.2011 195.359 54.1284 195.141 54.131C194.136 54.131 193.131 54.151 192.127 54.178C189.983 54.231 187.755 54.271 185.625 54.078C179.88 53.521 175.741 55.955 173.994 60.942C172.126 66.228 172.89 70.732 176.314 74.724C178.501 77.277 180.75 78 183.156 78Z" fill="#1D1D1D"/>
<path fill-rule="evenodd" clip-rule="evenodd" d="M149.403 336.456C146.793 338.866 144.797 341.649 143.301 344.973C134.733 364.055 109.865 376.227 96.5237 376.227C96.1367 376.227 95.7418 376.214 95.3738 376.2C82.0888 375.403 75.8757 372.267 70.7497 363.73C65.5897 355.144 61.9037 346.316 59.7847 337.48C56.2657 322.753 51.5277 311.273 44.8847 301.351C39.7317 293.651 36.4207 284.228 35.3257 274.085C33.2897 255.238 36.0397 239.659 43.7077 226.427C45.6397 223.117 46.6577 219.261 46.9007 214.297C47.5797 200.94 42.9457 189.093 38.3257 179.261C34.6477 171.443 31.4258 164.361 29.3138 156.931C23.4818 136.471 24.8107 121.272 33.5877 107.639C37.2657 101.934 42.0448 97.169 46.6578 92.559C48.0231 91.2206 49.3695 89.8632 50.6968 88.487C58.8358 80.081 69.0867 74.182 82.0337 70.464C84.8387 69.668 87.7337 68.948 90.5257 68.262C97.3757 66.559 104.463 64.8 110.988 61.567C120.47 56.872 128.914 50.405 137.088 44.174C141.611 40.712 146.3 37.132 151.087 33.898C155.478 30.935 160.244 27.971 166.035 26.961C174.79 25.431 183.74 25.105 192.391 24.779C192.947 24.763 193.504 24.754 194.061 24.752C198.881 24.752 202.476 25.617 205.379 27.501C217.688 35.408 224.414 47.151 224.822 61.428C224.926 64.946 224.968 68.532 225.009 71.994C225.169 85.288 225.335 99.012 228.826 112.119C233.612 130.114 236.466 144.855 237.782 158.503C238.952 170.689 237.63 182.764 236.189 192.956C235.981 194.473 235.864 196.044 235.767 197.546C235.545 200.656 235.33 203.592 234.305 206.223C232.262 211.443 230.405 216.816 228.611 222.009C226.637 227.701 224.601 233.586 222.315 239.278C214.917 257.738 205.33 274.196 193.832 288.188C182.333 302.189 166.887 320.323 149.403 336.456ZM223.956 239.929C226.256 234.203 228.3 228.296 230.274 222.577C232.068 217.398 233.917 212.053 235.947 206.86C237.076 203.98 237.297 200.773 237.526 197.678C237.623 196.19 237.734 194.66 237.935 193.219C239.389 182.896 240.733 170.689 239.542 158.323C238.212 144.599 235.344 129.761 230.53 111.655C227.094 98.783 226.928 85.15 226.769 71.98C226.727 68.49 226.686 64.904 226.589 61.373C226.159 46.486 219.149 34.258 206.342 26.012C203.135 23.956 199.235 23 194.06 23C193.479 23 192.904 23 192.329 23.02C183.608 23.346 174.603 23.672 165.737 25.216C159.614 26.296 154.654 29.377 150.103 32.437C145.261 35.692 140.565 39.292 136.007 42.768C127.91 48.965 119.535 55.37 110.205 59.981C103.846 63.131 96.8637 64.862 90.0957 66.545C87.2837 67.23 84.3747 67.951 81.5487 68.775C68.2977 72.575 57.7887 78.62 49.4287 87.275C48.0967 88.6299 46.7576 89.9779 45.4117 91.319C40.7287 95.993 35.8868 100.826 32.0978 106.69C23.0238 120.774 21.6457 136.415 27.6097 157.409C29.7567 164.963 33.0057 172.122 36.7257 180.015C41.2557 189.647 45.7998 201.237 45.1418 214.206C44.9058 218.886 43.9638 222.48 42.1838 225.548C34.3148 239.098 31.4887 255.044 33.5737 274.278C34.6957 284.685 38.1107 294.4 43.4167 302.335C49.9487 312.077 54.5967 323.377 58.0737 337.889C60.2277 346.911 63.9887 355.906 69.2327 364.637C74.6497 373.659 81.4657 377.134 95.2707 377.958C95.6717 377.986 96.0947 378 96.5237 378C103.659 378 113.571 374.711 122.389 369.442C132.835 363.19 140.849 354.756 144.915 345.692C146.315 342.598 148.164 340.002 150.602 337.751C168.162 321.556 183.656 303.352 195.19 289.311C206.813 275.165 216.49 258.561 223.956 239.929Z" fill="#1D1D1D"/>
<path fill-rule="evenodd" clip-rule="evenodd" d="M125.43 414.148C117.46 419.441 108.969 422.24 100.88 422.24C92.3197 422.24 84.4727 419.199 77.5617 413.185C70.8437 407.345 65.0267 400.971 60.7117 396.073C49.1537 382.972 41.6457 366.628 37.0757 344.653L37.0197 344.383C33.8137 328.967 30.7867 314.397 21.4377 301.393C10.2257 285.75 6.80372 270.833 10.6897 254.435C13.0997 244.236 14.6097 233.636 16.0697 223.397C16.6037 219.662 17.1507 215.804 17.7327 212.042C18.8827 204.656 19.5607 196.792 16.8047 189.282C12.0327 176.265 8.22471 165.457 4.80971 155.266C0.861714 143.481 0.757725 131.461 4.48373 117.473C7.80873 105.023 14.4287 93.509 25.9737 80.11C45.5177 57.42 71.3147 44.686 93.9537 35.216C99.4387 32.929 104.412 31.114 108.789 29.528C118.29 26.078 125.784 23.348 133.346 17.812C143.873 10.087 160.508 5.29301 161.374 5.04401C162.662 4.80801 163.944 4.55198 165.21 4.29498C170.626 3.20098 175.751 2.16803 181.201 2.16803C183.001 2.16803 184.706 2.279 186.409 2.508C187.871 2.708 189.422 2.79901 191.153 2.79901C194.02 2.79901 196.971 2.53599 199.81 2.27899C202.566 2.02299 205.399 1.76703 208.079 1.76703C210.025 1.76703 211.729 1.89799 213.273 2.17499C237.755 6.57499 248.835 18.65 250.324 42.587C250.761 49.515 251.314 56.554 251.848 63.357C252.18 67.542 252.513 71.872 252.818 76.119C253.808 89.649 254.958 104.06 257.34 118.554C257.956 122.344 258.337 126.237 258.718 130.013C259.058 133.401 259.411 136.879 259.916 140.287C261.682 151.989 262.721 162.367 263.095 171.99C263.441 180.754 263.165 187.994 262.236 194.79C260.456 207.808 257.748 220.66 253.967 234.1C249.043 251.608 239.59 267.113 230.455 282.105C228.664 285.033 226.889 287.971 225.13 290.918C214.963 307.982 201.105 322.406 187.704 336.353C183.951 340.253 180.079 344.285 176.333 348.317C164.033 361.592 154.643 374.596 147.613 388.085C141.435 399.925 134.385 408.211 125.431 414.148M177.628 349.523C181.361 345.505 185.232 341.473 188.978 337.572C202.448 323.556 216.376 309.049 226.646 291.812C228.401 288.869 230.174 285.935 231.965 283.013C241.162 267.931 250.671 252.328 255.671 234.572C259.473 221.069 262.195 208.134 263.981 195.033C264.923 188.133 265.201 180.782 264.861 171.921C264.48 162.235 263.441 151.801 261.661 140.017C261.156 136.657 260.809 133.193 260.477 129.84C260.097 126.036 259.708 122.115 259.078 118.27C256.717 103.86 255.567 89.476 254.583 75.98C254.279 71.734 253.939 67.404 253.607 63.226C253.074 56.429 252.513 49.397 252.09 42.483C251.294 29.783 247.803 20.313 241.39 13.51C235.227 6.97001 226.134 2.68799 213.585 0.442993C211.93 0.138993 210.129 0 208.079 0C205.316 0 202.442 0.26302 199.658 0.52002C196.853 0.77602 193.944 1.03998 191.153 1.03998C189.498 1.03998 188.023 0.942024 186.638 0.762024C184.858 0.520024 183.078 0.401978 181.201 0.401978C175.571 0.401978 170.121 1.50299 164.857 2.56299C163.59 2.81999 162.302 3.07597 161.014 3.31897L160.937 3.33899C160.217 3.53299 143.326 8.29903 132.301 16.392C124.946 21.775 117.542 24.47 108.186 27.865C103.789 29.465 98.7957 31.273 93.2757 33.587C70.4357 43.127 44.4227 56 24.6307 78.96C12.9057 92.56 6.16672 104.289 2.78072 117.023C-1.04228 131.371 -0.924292 143.696 3.14071 155.833C6.55471 166.032 10.3777 176.861 15.1497 189.893C17.7597 197.021 17.0957 204.615 15.9877 211.771C15.4102 215.558 14.8559 219.348 14.3247 223.141C12.8707 233.352 11.3607 243.911 8.9717 254.033C4.9617 270.972 8.46574 286.345 20.0037 302.405C29.1387 315.125 32.1237 329.508 35.2887 344.742L35.3507 345.012C39.9837 367.3 47.6297 383.893 59.3887 397.237C63.7457 402.17 69.6037 408.599 76.4117 414.515C83.6417 420.82 91.8697 424 100.88 424C109.322 424 118.138 421.104 126.407 415.624C135.625 409.506 142.862 401.013 149.178 388.895C156.138 375.559 165.439 362.672 177.628 349.523Z" fill="#1D1D1D"/>
</svg>
